<mxfile host="app.diagrams.net" modified="2023-09-07T08:32:10.804Z" agent="Mozilla/5.0 (Windows NT 10.0; Win64; x64) AppleWebKit/537.36 (KHTML, like Gecko) Chrome/116.0.0.0 Safari/537.36" etag="RfUDiEKUmNShCq9Pz0xI" version="21.7.2" type="device">
  <diagram name="Seite-1" id="5lrWXIQPAKSSsrzoHYcU">
    <mxGraphModel dx="1050" dy="534" grid="1" gridSize="10" guides="1" tooltips="1" connect="1" arrows="1" fold="1" page="1" pageScale="1" pageWidth="827" pageHeight="1169" math="0" shadow="0">
      <root>
        <mxCell id="0" />
        <mxCell id="1" parent="0" />
        <mxCell id="8-IjJtCqSjW7mCVWc3L9-23" value="" style="rounded=0;whiteSpace=wrap;html=1;" vertex="1" parent="1">
          <mxGeometry x="150" y="320" width="550" height="150" as="geometry" />
        </mxCell>
        <mxCell id="8-IjJtCqSjW7mCVWc3L9-9" style="edgeStyle=orthogonalEdgeStyle;rounded=0;orthogonalLoop=1;jettySize=auto;html=1;exitX=0.5;exitY=1;exitDx=0;exitDy=0;entryX=0.5;entryY=0;entryDx=0;entryDy=0;" edge="1" parent="1" source="8-IjJtCqSjW7mCVWc3L9-1" target="8-IjJtCqSjW7mCVWc3L9-4">
          <mxGeometry relative="1" as="geometry" />
        </mxCell>
        <mxCell id="8-IjJtCqSjW7mCVWc3L9-1" value="socket" style="rounded=0;whiteSpace=wrap;html=1;" vertex="1" parent="1">
          <mxGeometry x="210" y="120" width="120" height="30" as="geometry" />
        </mxCell>
        <mxCell id="8-IjJtCqSjW7mCVWc3L9-2" value="&lt;font style=&quot;font-size: 19px;&quot;&gt;CLIENT&lt;/font&gt;" style="text;html=1;align=center;verticalAlign=middle;resizable=0;points=[];autosize=1;strokeColor=none;fillColor=none;" vertex="1" parent="1">
          <mxGeometry x="225" y="73" width="90" height="40" as="geometry" />
        </mxCell>
        <mxCell id="8-IjJtCqSjW7mCVWc3L9-8" style="edgeStyle=orthogonalEdgeStyle;rounded=0;orthogonalLoop=1;jettySize=auto;html=1;exitX=0.5;exitY=1;exitDx=0;exitDy=0;entryX=0.5;entryY=0;entryDx=0;entryDy=0;" edge="1" parent="1" source="8-IjJtCqSjW7mCVWc3L9-4" target="8-IjJtCqSjW7mCVWc3L9-5">
          <mxGeometry relative="1" as="geometry" />
        </mxCell>
        <mxCell id="8-IjJtCqSjW7mCVWc3L9-28" style="edgeStyle=orthogonalEdgeStyle;rounded=0;orthogonalLoop=1;jettySize=auto;html=1;exitX=1;exitY=0.5;exitDx=0;exitDy=0;entryX=0;entryY=0.5;entryDx=0;entryDy=0;fontColor=#0000FF;strokeColor=#0000FF;" edge="1" parent="1" source="8-IjJtCqSjW7mCVWc3L9-4" target="8-IjJtCqSjW7mCVWc3L9-16">
          <mxGeometry relative="1" as="geometry" />
        </mxCell>
        <mxCell id="8-IjJtCqSjW7mCVWc3L9-4" value="connect" style="rounded=0;whiteSpace=wrap;html=1;" vertex="1" parent="1">
          <mxGeometry x="210" y="270" width="120" height="30" as="geometry" />
        </mxCell>
        <mxCell id="8-IjJtCqSjW7mCVWc3L9-10" value="" style="edgeStyle=orthogonalEdgeStyle;rounded=0;orthogonalLoop=1;jettySize=auto;html=1;" edge="1" parent="1" source="8-IjJtCqSjW7mCVWc3L9-5" target="8-IjJtCqSjW7mCVWc3L9-6">
          <mxGeometry relative="1" as="geometry" />
        </mxCell>
        <mxCell id="8-IjJtCqSjW7mCVWc3L9-24" style="edgeStyle=orthogonalEdgeStyle;rounded=0;orthogonalLoop=1;jettySize=auto;html=1;exitX=1;exitY=0.5;exitDx=0;exitDy=0;" edge="1" parent="1" source="8-IjJtCqSjW7mCVWc3L9-5" target="8-IjJtCqSjW7mCVWc3L9-17">
          <mxGeometry relative="1" as="geometry" />
        </mxCell>
        <mxCell id="8-IjJtCqSjW7mCVWc3L9-5" value="write" style="rounded=0;whiteSpace=wrap;html=1;" vertex="1" parent="1">
          <mxGeometry x="210" y="340" width="120" height="30" as="geometry" />
        </mxCell>
        <mxCell id="8-IjJtCqSjW7mCVWc3L9-11" style="edgeStyle=orthogonalEdgeStyle;rounded=0;orthogonalLoop=1;jettySize=auto;html=1;exitX=0;exitY=0.5;exitDx=0;exitDy=0;entryX=0;entryY=0.5;entryDx=0;entryDy=0;" edge="1" parent="1" source="8-IjJtCqSjW7mCVWc3L9-6" target="8-IjJtCqSjW7mCVWc3L9-5">
          <mxGeometry relative="1" as="geometry">
            <mxPoint x="190" y="360" as="targetPoint" />
          </mxGeometry>
        </mxCell>
        <mxCell id="8-IjJtCqSjW7mCVWc3L9-39" style="edgeStyle=orthogonalEdgeStyle;rounded=0;orthogonalLoop=1;jettySize=auto;html=1;exitX=0.5;exitY=1;exitDx=0;exitDy=0;entryX=0.5;entryY=0;entryDx=0;entryDy=0;" edge="1" parent="1" source="8-IjJtCqSjW7mCVWc3L9-6" target="8-IjJtCqSjW7mCVWc3L9-36">
          <mxGeometry relative="1" as="geometry" />
        </mxCell>
        <mxCell id="8-IjJtCqSjW7mCVWc3L9-6" value="read" style="rounded=0;whiteSpace=wrap;html=1;" vertex="1" parent="1">
          <mxGeometry x="210" y="410" width="120" height="30" as="geometry" />
        </mxCell>
        <mxCell id="8-IjJtCqSjW7mCVWc3L9-12" value="&lt;font style=&quot;font-size: 19px;&quot;&gt;SERVER&lt;/font&gt;" style="text;html=1;align=center;verticalAlign=middle;resizable=0;points=[];autosize=1;strokeColor=none;fillColor=none;" vertex="1" parent="1">
          <mxGeometry x="530" y="73" width="100" height="40" as="geometry" />
        </mxCell>
        <mxCell id="8-IjJtCqSjW7mCVWc3L9-19" style="edgeStyle=orthogonalEdgeStyle;rounded=0;orthogonalLoop=1;jettySize=auto;html=1;exitX=0.5;exitY=1;exitDx=0;exitDy=0;entryX=0.5;entryY=0;entryDx=0;entryDy=0;" edge="1" parent="1" source="8-IjJtCqSjW7mCVWc3L9-13" target="8-IjJtCqSjW7mCVWc3L9-14">
          <mxGeometry relative="1" as="geometry" />
        </mxCell>
        <mxCell id="8-IjJtCqSjW7mCVWc3L9-13" value="socket" style="rounded=0;whiteSpace=wrap;html=1;" vertex="1" parent="1">
          <mxGeometry x="520" y="120" width="120" height="30" as="geometry" />
        </mxCell>
        <mxCell id="8-IjJtCqSjW7mCVWc3L9-20" style="edgeStyle=orthogonalEdgeStyle;rounded=0;orthogonalLoop=1;jettySize=auto;html=1;exitX=0.5;exitY=1;exitDx=0;exitDy=0;entryX=0.5;entryY=0;entryDx=0;entryDy=0;" edge="1" parent="1" source="8-IjJtCqSjW7mCVWc3L9-14" target="8-IjJtCqSjW7mCVWc3L9-15">
          <mxGeometry relative="1" as="geometry" />
        </mxCell>
        <mxCell id="8-IjJtCqSjW7mCVWc3L9-14" value="bind" style="rounded=0;whiteSpace=wrap;html=1;" vertex="1" parent="1">
          <mxGeometry x="520" y="170" width="120" height="30" as="geometry" />
        </mxCell>
        <mxCell id="8-IjJtCqSjW7mCVWc3L9-21" style="edgeStyle=orthogonalEdgeStyle;rounded=0;orthogonalLoop=1;jettySize=auto;html=1;exitX=0.5;exitY=1;exitDx=0;exitDy=0;entryX=0.5;entryY=0;entryDx=0;entryDy=0;" edge="1" parent="1" source="8-IjJtCqSjW7mCVWc3L9-15" target="8-IjJtCqSjW7mCVWc3L9-16">
          <mxGeometry relative="1" as="geometry" />
        </mxCell>
        <mxCell id="8-IjJtCqSjW7mCVWc3L9-15" value="listen" style="rounded=0;whiteSpace=wrap;html=1;" vertex="1" parent="1">
          <mxGeometry x="520" y="220" width="120" height="30" as="geometry" />
        </mxCell>
        <mxCell id="8-IjJtCqSjW7mCVWc3L9-22" style="edgeStyle=orthogonalEdgeStyle;rounded=0;orthogonalLoop=1;jettySize=auto;html=1;exitX=0.5;exitY=1;exitDx=0;exitDy=0;entryX=0.5;entryY=0;entryDx=0;entryDy=0;" edge="1" parent="1" source="8-IjJtCqSjW7mCVWc3L9-16" target="8-IjJtCqSjW7mCVWc3L9-17">
          <mxGeometry relative="1" as="geometry" />
        </mxCell>
        <mxCell id="8-IjJtCqSjW7mCVWc3L9-16" value="accept" style="rounded=0;whiteSpace=wrap;html=1;" vertex="1" parent="1">
          <mxGeometry x="520" y="270" width="120" height="30" as="geometry" />
        </mxCell>
        <mxCell id="8-IjJtCqSjW7mCVWc3L9-17" value="read" style="rounded=0;whiteSpace=wrap;html=1;" vertex="1" parent="1">
          <mxGeometry x="520" y="340" width="120" height="30" as="geometry" />
        </mxCell>
        <mxCell id="8-IjJtCqSjW7mCVWc3L9-25" style="edgeStyle=orthogonalEdgeStyle;rounded=0;orthogonalLoop=1;jettySize=auto;html=1;exitX=0;exitY=0.5;exitDx=0;exitDy=0;" edge="1" parent="1" source="8-IjJtCqSjW7mCVWc3L9-18" target="8-IjJtCqSjW7mCVWc3L9-6">
          <mxGeometry relative="1" as="geometry" />
        </mxCell>
        <mxCell id="8-IjJtCqSjW7mCVWc3L9-26" style="edgeStyle=orthogonalEdgeStyle;rounded=0;orthogonalLoop=1;jettySize=auto;html=1;exitX=1;exitY=0.5;exitDx=0;exitDy=0;entryX=1;entryY=0.5;entryDx=0;entryDy=0;" edge="1" parent="1" source="8-IjJtCqSjW7mCVWc3L9-18" target="8-IjJtCqSjW7mCVWc3L9-17">
          <mxGeometry relative="1" as="geometry">
            <mxPoint x="715" y="360" as="targetPoint" />
          </mxGeometry>
        </mxCell>
        <mxCell id="8-IjJtCqSjW7mCVWc3L9-40" style="edgeStyle=orthogonalEdgeStyle;rounded=0;orthogonalLoop=1;jettySize=auto;html=1;exitX=0.5;exitY=1;exitDx=0;exitDy=0;entryX=0.5;entryY=0;entryDx=0;entryDy=0;" edge="1" parent="1" source="8-IjJtCqSjW7mCVWc3L9-18" target="8-IjJtCqSjW7mCVWc3L9-37">
          <mxGeometry relative="1" as="geometry" />
        </mxCell>
        <mxCell id="8-IjJtCqSjW7mCVWc3L9-18" value="write" style="rounded=0;whiteSpace=wrap;html=1;" vertex="1" parent="1">
          <mxGeometry x="520" y="410" width="120" height="30" as="geometry" />
        </mxCell>
        <mxCell id="8-IjJtCqSjW7mCVWc3L9-29" value="&lt;font color=&quot;#0000ff&quot; style=&quot;font-size: 14px;&quot;&gt;Connection request&lt;/font&gt;" style="text;html=1;strokeColor=none;fillColor=none;align=center;verticalAlign=middle;whiteSpace=wrap;rounded=0;" vertex="1" parent="1">
          <mxGeometry x="355" y="250" width="135" height="30" as="geometry" />
        </mxCell>
        <mxCell id="8-IjJtCqSjW7mCVWc3L9-31" value="" style="endArrow=classic;startArrow=classic;html=1;rounded=0;" edge="1" parent="1">
          <mxGeometry width="50" height="50" relative="1" as="geometry">
            <mxPoint x="660" y="300" as="sourcePoint" />
            <mxPoint x="660" y="120" as="targetPoint" />
          </mxGeometry>
        </mxCell>
        <mxCell id="8-IjJtCqSjW7mCVWc3L9-32" value="&lt;font color=&quot;#0000ff&quot; style=&quot;font-size: 14px;&quot;&gt;Open&lt;br&gt;listen&lt;/font&gt;" style="text;html=1;align=center;verticalAlign=middle;resizable=0;points=[];autosize=1;strokeColor=none;fillColor=none;" vertex="1" parent="1">
          <mxGeometry x="660" y="188" width="60" height="50" as="geometry" />
        </mxCell>
        <mxCell id="8-IjJtCqSjW7mCVWc3L9-33" value="" style="endArrow=classic;startArrow=classic;html=1;rounded=0;" edge="1" parent="1">
          <mxGeometry width="50" height="50" relative="1" as="geometry">
            <mxPoint x="190" y="303" as="sourcePoint" />
            <mxPoint x="190" y="123" as="targetPoint" />
          </mxGeometry>
        </mxCell>
        <mxCell id="8-IjJtCqSjW7mCVWc3L9-34" value="&lt;font color=&quot;#0000ff&quot; style=&quot;font-size: 14px;&quot;&gt;Open&lt;br&gt;client&lt;br&gt;&lt;/font&gt;" style="text;html=1;align=center;verticalAlign=middle;resizable=0;points=[];autosize=1;strokeColor=none;fillColor=none;" vertex="1" parent="1">
          <mxGeometry x="120" y="188" width="60" height="50" as="geometry" />
        </mxCell>
        <mxCell id="8-IjJtCqSjW7mCVWc3L9-35" value="&lt;font color=&quot;#0000ff&quot; style=&quot;font-size: 14px;&quot;&gt;Client / Server&lt;br&gt;Session&lt;br&gt;&lt;/font&gt;" style="text;html=1;align=center;verticalAlign=middle;resizable=0;points=[];autosize=1;strokeColor=none;fillColor=none;" vertex="1" parent="1">
          <mxGeometry x="30" y="370" width="110" height="50" as="geometry" />
        </mxCell>
        <mxCell id="8-IjJtCqSjW7mCVWc3L9-36" value="close" style="rounded=0;whiteSpace=wrap;html=1;" vertex="1" parent="1">
          <mxGeometry x="210" y="490" width="120" height="30" as="geometry" />
        </mxCell>
        <mxCell id="8-IjJtCqSjW7mCVWc3L9-41" style="edgeStyle=orthogonalEdgeStyle;rounded=0;orthogonalLoop=1;jettySize=auto;html=1;exitX=0.5;exitY=1;exitDx=0;exitDy=0;entryX=0.5;entryY=0;entryDx=0;entryDy=0;" edge="1" parent="1" source="8-IjJtCqSjW7mCVWc3L9-37" target="8-IjJtCqSjW7mCVWc3L9-38">
          <mxGeometry relative="1" as="geometry" />
        </mxCell>
        <mxCell id="8-IjJtCqSjW7mCVWc3L9-43" style="edgeStyle=orthogonalEdgeStyle;rounded=0;orthogonalLoop=1;jettySize=auto;html=1;exitX=0;exitY=0.5;exitDx=0;exitDy=0;entryX=1;entryY=0.5;entryDx=0;entryDy=0;strokeColor=#0000FF;" edge="1" parent="1" source="8-IjJtCqSjW7mCVWc3L9-37" target="8-IjJtCqSjW7mCVWc3L9-36">
          <mxGeometry relative="1" as="geometry" />
        </mxCell>
        <mxCell id="8-IjJtCqSjW7mCVWc3L9-37" value="read" style="rounded=0;whiteSpace=wrap;html=1;" vertex="1" parent="1">
          <mxGeometry x="520" y="490" width="120" height="30" as="geometry" />
        </mxCell>
        <mxCell id="8-IjJtCqSjW7mCVWc3L9-42" style="edgeStyle=orthogonalEdgeStyle;rounded=0;orthogonalLoop=1;jettySize=auto;html=1;exitX=1;exitY=0.5;exitDx=0;exitDy=0;entryX=1;entryY=0.5;entryDx=0;entryDy=0;" edge="1" parent="1" source="8-IjJtCqSjW7mCVWc3L9-38" target="8-IjJtCqSjW7mCVWc3L9-16">
          <mxGeometry relative="1" as="geometry">
            <Array as="points">
              <mxPoint x="740" y="555" />
              <mxPoint x="740" y="285" />
            </Array>
          </mxGeometry>
        </mxCell>
        <mxCell id="8-IjJtCqSjW7mCVWc3L9-38" value="close" style="rounded=0;whiteSpace=wrap;html=1;" vertex="1" parent="1">
          <mxGeometry x="520" y="540" width="120" height="30" as="geometry" />
        </mxCell>
        <mxCell id="8-IjJtCqSjW7mCVWc3L9-44" value="&lt;font color=&quot;#0000ff&quot; style=&quot;font-size: 14px;&quot;&gt;End of File&lt;/font&gt;" style="text;html=1;strokeColor=none;fillColor=none;align=center;verticalAlign=middle;whiteSpace=wrap;rounded=0;" vertex="1" parent="1">
          <mxGeometry x="355" y="520" width="135" height="30" as="geometry" />
        </mxCell>
      </root>
    </mxGraphModel>
  </diagram>
</mxfile>
